<mxfile host="app.diagrams.net" modified="2021-06-01T14:26:14.532Z" agent="5.0 (Windows)" etag="EBqYVxUyYpxHKfAvGMtg" version="14.7.3" type="github" pages="4">
  <diagram id="obNtM0qAvO5QuTD8h4pH" name="Page-1">
    <mxGraphModel dx="1038" dy="1619" grid="1" gridSize="10" guides="1" tooltips="1" connect="1" arrows="1" fold="1" page="1" pageScale="1" pageWidth="850" pageHeight="1100" math="0" shadow="0">
      <root>
        <mxCell id="0" />
        <mxCell id="1" parent="0" />
        <mxCell id="wXi70E9RyrrPzbHguTK--1" value="&lt;div&gt;Notifier&lt;/div&gt;" style="html=1;" vertex="1" parent="1">
          <mxGeometry x="315" y="120" width="110" height="50" as="geometry" />
        </mxCell>
        <mxCell id="wXi70E9RyrrPzbHguTK--2" value="SMS&lt;div&gt;Notifier&lt;/div&gt;" style="html=1;" vertex="1" parent="1">
          <mxGeometry x="170" y="240" width="110" height="50" as="geometry" />
        </mxCell>
        <mxCell id="wXi70E9RyrrPzbHguTK--3" value="Facebook&lt;div&gt;Notifier&lt;/div&gt;" style="html=1;" vertex="1" parent="1">
          <mxGeometry x="315" y="240" width="110" height="50" as="geometry" />
        </mxCell>
        <mxCell id="wXi70E9RyrrPzbHguTK--4" value="Slack&lt;div&gt;Notifier&lt;/div&gt;" style="html=1;" vertex="1" parent="1">
          <mxGeometry x="480" y="240" width="110" height="50" as="geometry" />
        </mxCell>
        <mxCell id="wXi70E9RyrrPzbHguTK--5" value="Extends" style="endArrow=block;endSize=16;endFill=0;html=1;entryX=0;entryY=1;entryDx=0;entryDy=0;exitX=0.5;exitY=0;exitDx=0;exitDy=0;" edge="1" parent="1" source="wXi70E9RyrrPzbHguTK--2" target="wXi70E9RyrrPzbHguTK--1">
          <mxGeometry width="160" relative="1" as="geometry">
            <mxPoint x="220" y="390" as="sourcePoint" />
            <mxPoint x="380" y="390" as="targetPoint" />
          </mxGeometry>
        </mxCell>
        <mxCell id="wXi70E9RyrrPzbHguTK--7" value="Extends" style="endArrow=block;endSize=16;endFill=0;html=1;entryX=0.5;entryY=1;entryDx=0;entryDy=0;exitX=0.5;exitY=0;exitDx=0;exitDy=0;" edge="1" parent="1" source="wXi70E9RyrrPzbHguTK--3" target="wXi70E9RyrrPzbHguTK--1">
          <mxGeometry width="160" relative="1" as="geometry">
            <mxPoint x="300" y="340" as="sourcePoint" />
            <mxPoint x="390" y="270" as="targetPoint" />
          </mxGeometry>
        </mxCell>
        <mxCell id="wXi70E9RyrrPzbHguTK--8" value="Extends" style="endArrow=block;endSize=16;endFill=0;html=1;entryX=1;entryY=1;entryDx=0;entryDy=0;exitX=0.5;exitY=0;exitDx=0;exitDy=0;" edge="1" parent="1" source="wXi70E9RyrrPzbHguTK--4" target="wXi70E9RyrrPzbHguTK--1">
          <mxGeometry width="160" relative="1" as="geometry">
            <mxPoint x="510" y="210" as="sourcePoint" />
            <mxPoint x="510" y="140" as="targetPoint" />
          </mxGeometry>
        </mxCell>
        <mxCell id="wXi70E9RyrrPzbHguTK--9" value="" style="dashed=0;outlineConnect=0;html=1;align=center;labelPosition=center;verticalLabelPosition=bottom;verticalAlign=top;shape=mxgraph.webicons.facebook;fillColor=#6294E4;gradientColor=#1A2665" vertex="1" parent="1">
          <mxGeometry x="337.3" y="300" width="65.4" height="70" as="geometry" />
        </mxCell>
        <mxCell id="wXi70E9RyrrPzbHguTK--10" value="" style="shape=image;html=1;verticalAlign=top;verticalLabelPosition=bottom;labelBackgroundColor=#ffffff;imageAspect=0;aspect=fixed;image=https://cdn4.iconfinder.com/data/icons/logos-and-brands/512/306_Slack_logo-128.png" vertex="1" parent="1">
          <mxGeometry x="500.5" y="300" width="69" height="69" as="geometry" />
        </mxCell>
        <mxCell id="wXi70E9RyrrPzbHguTK--11" value="" style="dashed=0;outlineConnect=0;html=1;align=center;labelPosition=center;verticalLabelPosition=bottom;verticalAlign=top;shape=mxgraph.weblogos.sms;fillColor=#48B921;strokeColor=none" vertex="1" parent="1">
          <mxGeometry x="191" y="306" width="69.2" height="64" as="geometry" />
        </mxCell>
        <mxCell id="wXi70E9RyrrPzbHguTK--12" value="&lt;div&gt;SMS + Facebook&lt;/div&gt;&lt;div&gt;Notifier&lt;/div&gt;" style="html=1;" vertex="1" parent="1">
          <mxGeometry x="130" y="60" width="110" height="50" as="geometry" />
        </mxCell>
        <mxCell id="wXi70E9RyrrPzbHguTK--13" value="&lt;div&gt;Facebook + Slack + SMS&lt;/div&gt;&lt;div&gt;Notifier&lt;/div&gt;" style="html=1;" vertex="1" parent="1">
          <mxGeometry x="287.5" y="20" width="165" height="50" as="geometry" />
        </mxCell>
        <mxCell id="wXi70E9RyrrPzbHguTK--14" value="Facebook + Slack&lt;br&gt;&lt;div&gt;Notifier&lt;/div&gt;" style="html=1;" vertex="1" parent="1">
          <mxGeometry x="560" y="60" width="110" height="50" as="geometry" />
        </mxCell>
        <mxCell id="wXi70E9RyrrPzbHguTK--17" value="Extends" style="endArrow=block;endSize=16;endFill=0;html=1;entryX=0;entryY=0.5;entryDx=0;entryDy=0;exitX=1;exitY=1;exitDx=0;exitDy=0;" edge="1" parent="1" source="wXi70E9RyrrPzbHguTK--12" target="wXi70E9RyrrPzbHguTK--1">
          <mxGeometry width="160" relative="1" as="geometry">
            <mxPoint x="210" y="200" as="sourcePoint" />
            <mxPoint x="300" y="130" as="targetPoint" />
          </mxGeometry>
        </mxCell>
        <mxCell id="wXi70E9RyrrPzbHguTK--18" value="Extends" style="endArrow=block;endSize=16;endFill=0;html=1;exitX=0.5;exitY=1;exitDx=0;exitDy=0;" edge="1" parent="1" source="wXi70E9RyrrPzbHguTK--13" target="wXi70E9RyrrPzbHguTK--1">
          <mxGeometry width="160" relative="1" as="geometry">
            <mxPoint x="250" y="120" as="sourcePoint" />
            <mxPoint x="530" y="150" as="targetPoint" />
          </mxGeometry>
        </mxCell>
        <mxCell id="wXi70E9RyrrPzbHguTK--19" value="Extends" style="endArrow=block;endSize=16;endFill=0;html=1;exitX=0.5;exitY=1;exitDx=0;exitDy=0;entryX=1;entryY=0.25;entryDx=0;entryDy=0;" edge="1" parent="1" source="wXi70E9RyrrPzbHguTK--14" target="wXi70E9RyrrPzbHguTK--1">
          <mxGeometry width="160" relative="1" as="geometry">
            <mxPoint x="470" y="120" as="sourcePoint" />
            <mxPoint x="470" y="170" as="targetPoint" />
          </mxGeometry>
        </mxCell>
        <mxCell id="wXi70E9RyrrPzbHguTK--20" value="" style="dashed=0;outlineConnect=0;html=1;align=center;labelPosition=center;verticalLabelPosition=bottom;verticalAlign=top;shape=mxgraph.weblogos.sms;fillColor=#48B921;strokeColor=none" vertex="1" parent="1">
          <mxGeometry x="130.8" y="20" width="39.2" height="34" as="geometry" />
        </mxCell>
        <mxCell id="wXi70E9RyrrPzbHguTK--21" value="" style="dashed=0;outlineConnect=0;html=1;align=center;labelPosition=center;verticalLabelPosition=bottom;verticalAlign=top;shape=mxgraph.webicons.facebook;fillColor=#6294E4;gradientColor=#1A2665" vertex="1" parent="1">
          <mxGeometry x="191" width="42.7" height="40" as="geometry" />
        </mxCell>
        <mxCell id="wXi70E9RyrrPzbHguTK--22" value="" style="dashed=0;outlineConnect=0;html=1;align=center;labelPosition=center;verticalLabelPosition=bottom;verticalAlign=top;shape=mxgraph.weblogos.sms;fillColor=#48B921;strokeColor=none" vertex="1" parent="1">
          <mxGeometry x="287.5" y="-50" width="42.5" height="44" as="geometry" />
        </mxCell>
        <mxCell id="wXi70E9RyrrPzbHguTK--23" value="c" style="dashed=0;outlineConnect=0;html=1;align=center;labelPosition=center;verticalLabelPosition=bottom;verticalAlign=top;shape=mxgraph.webicons.facebook;fillColor=#6294E4;gradientColor=#1A2665" vertex="1" parent="1">
          <mxGeometry x="340" y="-40" width="50" height="40.5" as="geometry" />
        </mxCell>
        <mxCell id="wXi70E9RyrrPzbHguTK--24" value="" style="shape=image;html=1;verticalAlign=top;verticalLabelPosition=bottom;labelBackgroundColor=#ffffff;imageAspect=0;aspect=fixed;image=https://cdn4.iconfinder.com/data/icons/logos-and-brands/512/306_Slack_logo-128.png" vertex="1" parent="1">
          <mxGeometry x="402.7" y="-50" width="56.5" height="56.5" as="geometry" />
        </mxCell>
        <mxCell id="wXi70E9RyrrPzbHguTK--25" value="c" style="dashed=0;outlineConnect=0;html=1;align=center;labelPosition=center;verticalLabelPosition=bottom;verticalAlign=top;shape=mxgraph.webicons.facebook;fillColor=#6294E4;gradientColor=#1A2665" vertex="1" parent="1">
          <mxGeometry x="560" y="-6" width="50" height="40.5" as="geometry" />
        </mxCell>
        <mxCell id="wXi70E9RyrrPzbHguTK--26" value="" style="shape=image;html=1;verticalAlign=top;verticalLabelPosition=bottom;labelBackgroundColor=#ffffff;imageAspect=0;aspect=fixed;image=https://cdn4.iconfinder.com/data/icons/logos-and-brands/512/306_Slack_logo-128.png" vertex="1" parent="1">
          <mxGeometry x="620" y="-14" width="56.5" height="56.5" as="geometry" />
        </mxCell>
      </root>
    </mxGraphModel>
  </diagram>
  <diagram id="hD9ZUC1AC_Yd4mX_c_vk" name="Page-2">
    <mxGraphModel dx="1038" dy="519" grid="1" gridSize="10" guides="1" tooltips="1" connect="1" arrows="1" fold="1" page="1" pageScale="1" pageWidth="850" pageHeight="1100" math="0" shadow="0">
      <root>
        <mxCell id="s6kPz8wZKVb3iE4a7DDW-0" />
        <mxCell id="s6kPz8wZKVb3iE4a7DDW-1" parent="s6kPz8wZKVb3iE4a7DDW-0" />
        <mxCell id="O9yW0eE3P57p5rW0reVG-0" value="Parent" style="html=1;" vertex="1" parent="s6kPz8wZKVb3iE4a7DDW-1">
          <mxGeometry x="240" y="260" width="110" height="50" as="geometry" />
        </mxCell>
        <mxCell id="O9yW0eE3P57p5rW0reVG-1" value="Child" style="html=1;" vertex="1" parent="s6kPz8wZKVb3iE4a7DDW-1">
          <mxGeometry x="130" y="380" width="110" height="50" as="geometry" />
        </mxCell>
        <mxCell id="O9yW0eE3P57p5rW0reVG-2" value="Child" style="html=1;" vertex="1" parent="s6kPz8wZKVb3iE4a7DDW-1">
          <mxGeometry x="350" y="380" width="110" height="50" as="geometry" />
        </mxCell>
        <mxCell id="9UbAyMBFpO-ACWUitK4b-0" value="Extends" style="endArrow=block;endSize=16;endFill=0;html=1;entryX=0.25;entryY=1;entryDx=0;entryDy=0;exitX=0.5;exitY=0;exitDx=0;exitDy=0;" edge="1" parent="s6kPz8wZKVb3iE4a7DDW-1" source="O9yW0eE3P57p5rW0reVG-1" target="O9yW0eE3P57p5rW0reVG-0">
          <mxGeometry width="160" relative="1" as="geometry">
            <mxPoint x="240" y="110" as="sourcePoint" />
            <mxPoint x="315" y="145" as="targetPoint" />
          </mxGeometry>
        </mxCell>
        <mxCell id="9UbAyMBFpO-ACWUitK4b-1" value="Extends" style="endArrow=block;endSize=16;endFill=0;html=1;entryX=0.75;entryY=1;entryDx=0;entryDy=0;exitX=0.25;exitY=0;exitDx=0;exitDy=0;" edge="1" parent="s6kPz8wZKVb3iE4a7DDW-1" source="O9yW0eE3P57p5rW0reVG-2" target="O9yW0eE3P57p5rW0reVG-0">
          <mxGeometry width="160" relative="1" as="geometry">
            <mxPoint x="195" y="390" as="sourcePoint" />
            <mxPoint x="277.5" y="320" as="targetPoint" />
          </mxGeometry>
        </mxCell>
        <mxCell id="DBsJD7ATE8R1dUXpkr1o-0" value="Client" style="html=1;" vertex="1" parent="s6kPz8wZKVb3iE4a7DDW-1">
          <mxGeometry x="530" y="310" width="110" height="50" as="geometry" />
        </mxCell>
        <mxCell id="DBsJD7ATE8R1dUXpkr1o-1" value="Service" style="html=1;" vertex="1" parent="s6kPz8wZKVb3iE4a7DDW-1">
          <mxGeometry x="720" y="310" width="110" height="50" as="geometry" />
        </mxCell>
        <mxCell id="DBsJD7ATE8R1dUXpkr1o-2" value="1" style="endArrow=open;html=1;endSize=12;startArrow=diamondThin;startSize=14;startFill=0;edgeStyle=orthogonalEdgeStyle;align=left;verticalAlign=bottom;entryX=0;entryY=0.5;entryDx=0;entryDy=0;exitX=1;exitY=0.5;exitDx=0;exitDy=0;" edge="1" parent="s6kPz8wZKVb3iE4a7DDW-1" source="DBsJD7ATE8R1dUXpkr1o-0" target="DBsJD7ATE8R1dUXpkr1o-1">
          <mxGeometry x="-1" y="3" relative="1" as="geometry">
            <mxPoint x="530" y="260" as="sourcePoint" />
            <mxPoint x="690" y="260" as="targetPoint" />
          </mxGeometry>
        </mxCell>
        <mxCell id="DBsJD7ATE8R1dUXpkr1o-3" value="Inheritance" style="text;html=1;strokeColor=none;fillColor=none;align=center;verticalAlign=middle;whiteSpace=wrap;rounded=0;" vertex="1" parent="s6kPz8wZKVb3iE4a7DDW-1">
          <mxGeometry x="275" y="190" width="40" height="20" as="geometry" />
        </mxCell>
        <mxCell id="DBsJD7ATE8R1dUXpkr1o-4" value="Aggregation" style="text;html=1;strokeColor=none;fillColor=none;align=center;verticalAlign=middle;whiteSpace=wrap;rounded=0;" vertex="1" parent="s6kPz8wZKVb3iE4a7DDW-1">
          <mxGeometry x="640" y="190" width="40" height="20" as="geometry" />
        </mxCell>
      </root>
    </mxGraphModel>
  </diagram>
  <diagram id="AFmCAEBOqhch4bL8hIxP" name="Page-3">
    <mxGraphModel dx="1038" dy="519" grid="1" gridSize="10" guides="1" tooltips="1" connect="1" arrows="1" fold="1" page="1" pageScale="1" pageWidth="850" pageHeight="1100" math="0" shadow="0">
      <root>
        <mxCell id="ip6OCekWCkhI-Ly0D_2Z-0" />
        <mxCell id="ip6OCekWCkhI-Ly0D_2Z-1" parent="ip6OCekWCkhI-Ly0D_2Z-0" />
        <mxCell id="ip6OCekWCkhI-Ly0D_2Z-8" value="&lt;p style=&quot;margin: 0px ; margin-top: 6px ; text-align: center&quot;&gt;Interface&lt;br&gt;Component&lt;/p&gt;&lt;hr&gt;&lt;p style=&quot;margin: 0px ; margin-left: 8px&quot;&gt;doOperation()&lt;/p&gt;" style="align=left;overflow=fill;html=1;dropTarget=0;" vertex="1" parent="ip6OCekWCkhI-Ly0D_2Z-1">
          <mxGeometry x="140" y="100" width="180" height="70" as="geometry" />
        </mxCell>
        <mxCell id="ip6OCekWCkhI-Ly0D_2Z-10" value="&lt;p style=&quot;margin: 0px ; margin-top: 6px ; text-align: center&quot;&gt;ConcreteComponent&lt;/p&gt;&lt;hr&gt;&lt;p style=&quot;margin: 0px ; margin-left: 8px&quot;&gt;doOperation()&lt;/p&gt;" style="align=left;overflow=fill;html=1;dropTarget=0;" vertex="1" parent="ip6OCekWCkhI-Ly0D_2Z-1">
          <mxGeometry x="50" y="260" width="180" height="60" as="geometry" />
        </mxCell>
        <mxCell id="ip6OCekWCkhI-Ly0D_2Z-12" value="&lt;p style=&quot;margin: 0px ; margin-top: 6px ; text-align: center&quot;&gt;abstract&lt;/p&gt;&lt;p style=&quot;margin: 0px ; margin-top: 6px ; text-align: center&quot;&gt;Decorator&lt;/p&gt;&lt;hr&gt;&lt;p style=&quot;margin: 0px ; margin-left: 8px&quot;&gt;doOperation()&lt;/p&gt;&lt;p style=&quot;margin: 0px ; margin-left: 8px&quot;&gt;Component wrappee&lt;br&gt;&lt;/p&gt;&lt;div&gt;&amp;nbsp; doAdditionalOperation()&lt;br&gt;&lt;/div&gt;&lt;div&gt;&lt;br&gt;&lt;/div&gt;" style="align=left;overflow=fill;html=1;dropTarget=0;" vertex="1" parent="ip6OCekWCkhI-Ly0D_2Z-1">
          <mxGeometry x="330" y="260" width="180" height="120" as="geometry" />
        </mxCell>
        <mxCell id="ip6OCekWCkhI-Ly0D_2Z-14" value="&lt;p style=&quot;margin: 0px ; margin-top: 6px ; text-align: center&quot;&gt;Concrete&lt;/p&gt;&lt;p style=&quot;margin: 0px ; margin-top: 6px ; text-align: center&quot;&gt;Decorator&lt;/p&gt;&lt;hr&gt;&lt;p style=&quot;margin: 0px ; margin-left: 8px&quot;&gt;doOperation()&lt;/p&gt;&lt;div&gt;&amp;nbsp; doAdditionalOperation()&lt;br&gt;&lt;div&gt;&lt;br&gt;&lt;br&gt;&lt;/div&gt;&lt;/div&gt;&lt;div&gt;&amp;nbsp;&lt;br&gt;&lt;/div&gt;" style="align=left;overflow=fill;html=1;dropTarget=0;" vertex="1" parent="ip6OCekWCkhI-Ly0D_2Z-1">
          <mxGeometry x="220" y="450" width="180" height="90" as="geometry" />
        </mxCell>
        <mxCell id="ip6OCekWCkhI-Ly0D_2Z-15" value="&lt;p style=&quot;margin: 0px ; margin-top: 6px ; text-align: center&quot;&gt;Concrete&lt;/p&gt;&lt;p style=&quot;margin: 0px ; margin-top: 6px ; text-align: center&quot;&gt;Decorator&lt;/p&gt;&lt;hr&gt;&lt;p style=&quot;margin: 0px ; margin-left: 8px&quot;&gt;doOperation()&lt;/p&gt;&lt;p style=&quot;margin: 0px ; margin-left: 8px&quot;&gt;doAdditionalOperation()&lt;br&gt;&lt;/p&gt;&lt;div&gt;&lt;br&gt;&lt;br&gt;&lt;/div&gt;" style="align=left;overflow=fill;html=1;dropTarget=0;" vertex="1" parent="ip6OCekWCkhI-Ly0D_2Z-1">
          <mxGeometry x="520" y="450" width="180" height="90" as="geometry" />
        </mxCell>
        <mxCell id="oAwR8T1v82feQk-BxFuK-0" value="Extends" style="endArrow=block;endSize=16;endFill=0;html=1;entryX=0.25;entryY=1;entryDx=0;entryDy=0;exitX=0.5;exitY=0;exitDx=0;exitDy=0;" edge="1" parent="ip6OCekWCkhI-Ly0D_2Z-1" source="ip6OCekWCkhI-Ly0D_2Z-14" target="ip6OCekWCkhI-Ly0D_2Z-12">
          <mxGeometry width="160" relative="1" as="geometry">
            <mxPoint x="377.5" y="380" as="sourcePoint" />
            <mxPoint x="322.5" y="310" as="targetPoint" />
          </mxGeometry>
        </mxCell>
        <mxCell id="oAwR8T1v82feQk-BxFuK-1" value="Extends" style="endArrow=block;endSize=16;endFill=0;html=1;entryX=0.75;entryY=1;entryDx=0;entryDy=0;" edge="1" parent="ip6OCekWCkhI-Ly0D_2Z-1" target="ip6OCekWCkhI-Ly0D_2Z-12">
          <mxGeometry width="160" relative="1" as="geometry">
            <mxPoint x="560" y="450" as="sourcePoint" />
            <mxPoint x="385" y="390" as="targetPoint" />
          </mxGeometry>
        </mxCell>
        <mxCell id="oAwR8T1v82feQk-BxFuK-2" value="" style="endArrow=diamondThin;endFill=0;endSize=24;html=1;exitX=1;exitY=0.5;exitDx=0;exitDy=0;entryX=0.5;entryY=0;entryDx=0;entryDy=0;" edge="1" parent="ip6OCekWCkhI-Ly0D_2Z-1" source="ip6OCekWCkhI-Ly0D_2Z-8" target="ip6OCekWCkhI-Ly0D_2Z-12">
          <mxGeometry width="160" relative="1" as="geometry">
            <mxPoint x="370" y="190" as="sourcePoint" />
            <mxPoint x="530" y="190" as="targetPoint" />
            <Array as="points">
              <mxPoint x="420" y="135" />
            </Array>
          </mxGeometry>
        </mxCell>
        <mxCell id="oAwR8T1v82feQk-BxFuK-3" value="" style="endArrow=block;dashed=1;endFill=0;endSize=12;html=1;exitX=0.5;exitY=0;exitDx=0;exitDy=0;entryX=0.5;entryY=1;entryDx=0;entryDy=0;" edge="1" parent="ip6OCekWCkhI-Ly0D_2Z-1" source="ip6OCekWCkhI-Ly0D_2Z-10" target="ip6OCekWCkhI-Ly0D_2Z-8">
          <mxGeometry width="160" relative="1" as="geometry">
            <mxPoint x="40" y="400" as="sourcePoint" />
            <mxPoint x="200" y="400" as="targetPoint" />
            <Array as="points">
              <mxPoint x="230" y="260" />
            </Array>
          </mxGeometry>
        </mxCell>
        <mxCell id="oAwR8T1v82feQk-BxFuK-4" value="" style="endArrow=block;dashed=1;endFill=0;endSize=12;html=1;entryX=0.75;entryY=1;entryDx=0;entryDy=0;" edge="1" parent="ip6OCekWCkhI-Ly0D_2Z-1" source="ip6OCekWCkhI-Ly0D_2Z-12" target="ip6OCekWCkhI-Ly0D_2Z-8">
          <mxGeometry width="160" relative="1" as="geometry">
            <mxPoint x="150" y="270" as="sourcePoint" />
            <mxPoint x="240" y="180" as="targetPoint" />
            <Array as="points">
              <mxPoint x="275" y="270" />
            </Array>
          </mxGeometry>
        </mxCell>
      </root>
    </mxGraphModel>
  </diagram>
  <diagram id="p94a-WI-WX5thm42XQXm" name="Page-4">
    <mxGraphModel dx="1038" dy="519" grid="1" gridSize="10" guides="1" tooltips="1" connect="1" arrows="1" fold="1" page="1" pageScale="1" pageWidth="850" pageHeight="1100" math="0" shadow="0">
      <root>
        <mxCell id="XMHARoCcHorw1Ol-h4J7-0" />
        <mxCell id="XMHARoCcHorw1Ol-h4J7-1" parent="XMHARoCcHorw1Ol-h4J7-0" />
        <mxCell id="XMHARoCcHorw1Ol-h4J7-2" value="&lt;p style=&quot;margin: 0px ; margin-top: 6px ; text-align: center&quot;&gt;Interface&lt;br&gt;Notifier&lt;/p&gt;&lt;hr&gt;&lt;p style=&quot;margin: 0px ; margin-left: 8px&quot;&gt;send(message)&lt;/p&gt;" style="align=left;overflow=fill;html=1;dropTarget=0;" vertex="1" parent="XMHARoCcHorw1Ol-h4J7-1">
          <mxGeometry x="140" y="100" width="180" height="70" as="geometry" />
        </mxCell>
        <mxCell id="XMHARoCcHorw1Ol-h4J7-3" value="&lt;p style=&quot;margin: 0px ; margin-top: 6px ; text-align: center&quot;&gt;NotifierConcrete&lt;/p&gt;&lt;hr&gt;&lt;p style=&quot;margin: 0px ; margin-left: 8px&quot;&gt;send(message)&lt;/p&gt;" style="align=left;overflow=fill;html=1;dropTarget=0;" vertex="1" parent="XMHARoCcHorw1Ol-h4J7-1">
          <mxGeometry x="50" y="260" width="180" height="60" as="geometry" />
        </mxCell>
        <mxCell id="XMHARoCcHorw1Ol-h4J7-4" value="&lt;p style=&quot;margin: 0px ; margin-top: 6px ; text-align: center&quot;&gt;abstract&lt;/p&gt;&lt;p style=&quot;margin: 0px ; margin-top: 6px ; text-align: center&quot;&gt;NotifierBaseDecorator&lt;/p&gt;&lt;hr&gt;&lt;p style=&quot;margin: 0px ; margin-left: 8px&quot;&gt;Notifier notifier&lt;/p&gt;&lt;p style=&quot;margin: 0px ; margin-left: 8px&quot;&gt;send(message)&lt;br&gt;&lt;/p&gt;&lt;div&gt;&amp;nbsp; NotifierBaseDecorator(Notifier)&lt;br&gt;&lt;/div&gt;&lt;div&gt;&lt;br&gt;&lt;/div&gt;" style="align=left;overflow=fill;html=1;dropTarget=0;" vertex="1" parent="XMHARoCcHorw1Ol-h4J7-1">
          <mxGeometry x="330" y="260" width="180" height="120" as="geometry" />
        </mxCell>
        <mxCell id="XMHARoCcHorw1Ol-h4J7-5" value="&lt;div align=&quot;center&quot;&gt;Notifier_FB&lt;/div&gt;&lt;hr&gt;&lt;p style=&quot;margin: 0px ; margin-left: 8px&quot;&gt;Notifier_FB(Notifier)&lt;/p&gt;&lt;div&gt;&amp;nbsp; send(message)&lt;br&gt;&lt;div&gt;&lt;br&gt;&lt;br&gt;&lt;/div&gt;&lt;/div&gt;&lt;div&gt;&amp;nbsp;&lt;br&gt;&lt;/div&gt;" style="align=left;overflow=fill;html=1;dropTarget=0;" vertex="1" parent="XMHARoCcHorw1Ol-h4J7-1">
          <mxGeometry x="220" y="450" width="180" height="90" as="geometry" />
        </mxCell>
        <mxCell id="XMHARoCcHorw1Ol-h4J7-6" value="&lt;div align=&quot;center&quot;&gt;Notifier_SMS&lt;br&gt;&lt;/div&gt;&lt;hr&gt;&lt;p style=&quot;margin: 0px ; margin-left: 8px&quot;&gt;Notifier_SMS(Notifier)&lt;/p&gt;&amp;nbsp; send(message)&lt;br&gt;&lt;br&gt;&lt;br&gt;&lt;div&gt;&lt;br&gt;&lt;/div&gt;" style="align=left;overflow=fill;html=1;dropTarget=0;" vertex="1" parent="XMHARoCcHorw1Ol-h4J7-1">
          <mxGeometry x="520" y="450" width="180" height="90" as="geometry" />
        </mxCell>
        <mxCell id="XMHARoCcHorw1Ol-h4J7-7" value="Extends" style="endArrow=block;endSize=16;endFill=0;html=1;entryX=0.25;entryY=1;entryDx=0;entryDy=0;exitX=0.5;exitY=0;exitDx=0;exitDy=0;" edge="1" parent="XMHARoCcHorw1Ol-h4J7-1" source="XMHARoCcHorw1Ol-h4J7-5" target="XMHARoCcHorw1Ol-h4J7-4">
          <mxGeometry width="160" relative="1" as="geometry">
            <mxPoint x="377.5" y="380" as="sourcePoint" />
            <mxPoint x="322.5" y="310" as="targetPoint" />
          </mxGeometry>
        </mxCell>
        <mxCell id="XMHARoCcHorw1Ol-h4J7-8" value="Extends" style="endArrow=block;endSize=16;endFill=0;html=1;entryX=0.75;entryY=1;entryDx=0;entryDy=0;" edge="1" parent="XMHARoCcHorw1Ol-h4J7-1" target="XMHARoCcHorw1Ol-h4J7-4">
          <mxGeometry width="160" relative="1" as="geometry">
            <mxPoint x="560" y="450" as="sourcePoint" />
            <mxPoint x="385" y="390" as="targetPoint" />
          </mxGeometry>
        </mxCell>
        <mxCell id="XMHARoCcHorw1Ol-h4J7-9" value="" style="endArrow=diamondThin;endFill=0;endSize=24;html=1;exitX=1;exitY=0.5;exitDx=0;exitDy=0;entryX=0.5;entryY=0;entryDx=0;entryDy=0;" edge="1" parent="XMHARoCcHorw1Ol-h4J7-1" source="XMHARoCcHorw1Ol-h4J7-2" target="XMHARoCcHorw1Ol-h4J7-4">
          <mxGeometry width="160" relative="1" as="geometry">
            <mxPoint x="370" y="190" as="sourcePoint" />
            <mxPoint x="530" y="190" as="targetPoint" />
            <Array as="points">
              <mxPoint x="420" y="135" />
            </Array>
          </mxGeometry>
        </mxCell>
        <mxCell id="XMHARoCcHorw1Ol-h4J7-10" value="" style="endArrow=block;dashed=1;endFill=0;endSize=12;html=1;exitX=0.5;exitY=0;exitDx=0;exitDy=0;entryX=0.5;entryY=1;entryDx=0;entryDy=0;" edge="1" parent="XMHARoCcHorw1Ol-h4J7-1" source="XMHARoCcHorw1Ol-h4J7-3" target="XMHARoCcHorw1Ol-h4J7-2">
          <mxGeometry width="160" relative="1" as="geometry">
            <mxPoint x="40" y="400" as="sourcePoint" />
            <mxPoint x="200" y="400" as="targetPoint" />
            <Array as="points">
              <mxPoint x="230" y="260" />
            </Array>
          </mxGeometry>
        </mxCell>
        <mxCell id="XMHARoCcHorw1Ol-h4J7-11" value="" style="endArrow=block;dashed=1;endFill=0;endSize=12;html=1;entryX=0.75;entryY=1;entryDx=0;entryDy=0;" edge="1" parent="XMHARoCcHorw1Ol-h4J7-1" source="XMHARoCcHorw1Ol-h4J7-4" target="XMHARoCcHorw1Ol-h4J7-2">
          <mxGeometry width="160" relative="1" as="geometry">
            <mxPoint x="150" y="270" as="sourcePoint" />
            <mxPoint x="240" y="180" as="targetPoint" />
            <Array as="points">
              <mxPoint x="275" y="270" />
            </Array>
          </mxGeometry>
        </mxCell>
        <mxCell id="XMHARoCcHorw1Ol-h4J7-12" value="&lt;div align=&quot;center&quot;&gt;Notifier_Slack&lt;br&gt;&lt;/div&gt;&lt;hr&gt;&lt;p style=&quot;margin: 0px ; margin-left: 8px&quot;&gt;Notifier_Slack(Notifier)&lt;/p&gt;&amp;nbsp; send(message)&lt;br&gt;&lt;br&gt;&lt;br&gt;&lt;div&gt;&lt;br&gt;&lt;/div&gt;" style="align=left;overflow=fill;html=1;dropTarget=0;" vertex="1" parent="XMHARoCcHorw1Ol-h4J7-1">
          <mxGeometry x="640" y="290" width="180" height="90" as="geometry" />
        </mxCell>
        <mxCell id="XMHARoCcHorw1Ol-h4J7-13" value="Extends" style="endArrow=block;endSize=16;endFill=0;html=1;entryX=1;entryY=0.5;entryDx=0;entryDy=0;exitX=0;exitY=0.5;exitDx=0;exitDy=0;" edge="1" parent="XMHARoCcHorw1Ol-h4J7-1" source="XMHARoCcHorw1Ol-h4J7-12" target="XMHARoCcHorw1Ol-h4J7-4">
          <mxGeometry width="160" relative="1" as="geometry">
            <mxPoint x="655" y="390" as="sourcePoint" />
            <mxPoint x="560" y="320" as="targetPoint" />
          </mxGeometry>
        </mxCell>
      </root>
    </mxGraphModel>
  </diagram>
</mxfile>
